<svg width="25" height="27" viewBox="0 0 25 27" fill="none" xmlns="http://www.w3.org/2000/svg">
<g filter="url(#filter0_d_0_241)">
<path d="M9.27407 3.65572C8.99848 3.49647 8.68638 3.41323 8.369 3.41432C8.05162 3.4154 7.74009 3.50078 7.46557 3.6619C7.19105 3.82302 6.96317 4.05424 6.80473 4.33242C6.64629 4.6106 6.56285 4.926 6.56274 5.24705V16.7549C6.56285 17.0759 6.64629 17.3913 6.80473 17.6695C6.96317 17.9477 7.19105 18.1789 7.46557 18.34C7.74009 18.5012 8.05162 18.5865 8.369 18.5876C8.68638 18.5887 8.99848 18.5055 9.27407 18.3462L19.2277 12.5914C19.5049 12.431 19.7352 12.1993 19.8955 11.9199C20.0557 11.6404 20.1401 11.3231 20.1401 11C20.1401 10.677 20.0557 10.3597 19.8955 10.0802C19.7352 9.80079 19.5049 9.56913 19.2277 9.40872L9.27407 3.65572Z" fill="#1A3E3E"/>
</g>
<defs>
<filter id="filter0_d_0_241" x="-3.34302" y="0" width="29.6857" height="30" filterUnits="userSpaceOnUse" color-interpolation-filters="sRGB">
<feFlood flood-opacity="0" result="BackgroundImageFix"/>
<feColorMatrix in="SourceAlpha" type="matrix" values="0 0 0 0 0 0 0 0 0 0 0 0 0 0 0 0 0 0 127 0" result="hardAlpha"/>
<feOffset dy="4"/>
<feGaussianBlur stdDeviation="2"/>
<feComposite in2="hardAlpha" operator="out"/>
<feColorMatrix type="matrix" values="0 0 0 0 0 0 0 0 0 0 0 0 0 0 0 0 0 0 0.25 0"/>
<feBlend mode="normal" in2="BackgroundImageFix" result="effect1_dropShadow_0_241"/>
<feBlend mode="normal" in="SourceGraphic" in2="effect1_dropShadow_0_241" result="shape"/>
</filter>
</defs>
</svg>
